<?xml version="1.0" ?><!DOCTYPE svg  PUBLIC '-//W3C//DTD SVG 1.1//EN'  'http://www.w3.org/Graphics/SVG/1.1/DTD/svg11.dtd'><svg height="100%" style="fill-rule:evenodd;clip-rule:evenodd;stroke-linejoin:round;stroke-miterlimit:2;" version="1.1" viewBox="0 0 64 64" width="100%" xml:space="preserve" xmlns="http://www.w3.org/2000/svg" xmlns:serif="http://www.serif.com/" xmlns:xlink="http://www.w3.org/1999/xlink"><rect height="64" id="facebook-fb-apps-platform" style="fill:none;" width="64" x="0" y="0"/><g id="facebook-fb-apps-platform1"><g transform="matrix(0.928571,0,0,0.928571,2.28571,2.28571)"><circle cx="32" cy="32" r="28" style="fill:rgb(87,183,235);"/></g><path d="M33,57.981C32.667,57.994 32.334,58 32,58C17.65,58 6,46.35 6,32C6,17.65 17.65,6 32,6C32.334,6 32.667,6.006 33,6.019C19.114,6.544 8,17.985 8,32C8,46.015 19.114,57.456 33,57.981Z" style="fill:rgb(72,145,211);"/><path d="M28,57.694L28,38L21,38C20.448,38 20,37.552 20,37L20,31C20,30.448 20.448,30 21,30L28,30L28,22C28,19.878 28.843,17.843 30.343,16.343C31.843,14.843 33.878,14 36,14C38.397,14 40.725,14 42,14C42.552,14 43,14.448 43,15C43,16.537 43,19.463 43,21C43,21.265 42.895,21.52 42.707,21.707C42.52,21.895 42.265,22 42,22C41.456,22 40.743,22 40,22C38.939,22 37.922,22.421 37.172,23.172C36.421,23.922 36,24.939 36,26C36,28.784 36,30 36,30L42.867,30C43.154,30 43.427,30.123 43.617,30.338C43.807,30.553 43.895,30.839 43.859,31.124C43.658,32.734 43.292,35.664 43.109,37.124C43.047,37.624 42.622,38 42.117,38C40.236,38 36,38 36,38L36,57.694C34.696,57.895 33.36,58 32,58C30.64,58 29.304,57.895 28,57.694Z" style="fill:rgb(249,246,249);"/><path d="M27.5,29.5L27.5,22C27.5,19.746 28.396,17.584 29.99,15.99C31.584,14.396 33.746,13.5 36,13.5C38.397,13.5 40.725,13.5 42,13.5C42.828,13.5 43.5,14.172 43.5,15C43.5,16.537 43.5,19.463 43.5,21C43.5,21.398 43.342,21.779 43.061,22.061C42.779,22.342 42.398,22.5 42,22.5C41.456,22.5 40.743,22.5 40,22.5C39.072,22.5 38.181,22.869 37.525,23.525C36.869,24.182 36.5,25.072 36.5,26L36.5,29.5L42.867,29.5C43.297,29.5 43.707,29.685 43.992,30.007C44.276,30.33 44.409,30.759 44.356,31.186C44.154,32.796 43.788,35.726 43.606,37.186C43.512,37.937 42.874,38.5 42.117,38.5L36.5,38.5L36.5,57.694C36.5,57.94 36.32,58.15 36.076,58.188C34.748,58.393 33.386,58.5 32,58.5C30.614,58.5 29.252,58.393 27.924,58.188C27.68,58.15 27.5,57.94 27.5,57.694L27.5,38.5L21,38.5C20.172,38.5 19.5,37.828 19.5,37C19.5,35.463 19.5,32.537 19.5,31C19.5,30.172 20.172,29.5 21,29.5L27.5,29.5ZM35.5,57.261L35.5,38C35.5,37.724 35.724,37.5 36,37.5C36,37.5 40.236,37.5 42.117,37.5C42.369,37.5 42.582,37.312 42.613,37.062C42.796,35.602 43.162,32.672 43.363,31.062C43.381,30.92 43.337,30.777 43.242,30.669C43.147,30.562 43.011,30.5 42.867,30.5L36,30.5C35.724,30.5 35.5,30.276 35.5,30C35.5,30 35.5,28.784 35.5,26C35.5,24.807 35.974,23.662 36.818,22.818C37.662,21.974 38.807,21.5 40,21.5C40.743,21.5 41.456,21.5 42,21.5C42.133,21.5 42.26,21.447 42.354,21.354C42.447,21.26 42.5,21.133 42.5,21L42.5,15C42.5,14.724 42.276,14.5 42,14.5C40.725,14.5 38.397,14.5 36,14.5C34.011,14.5 32.103,15.29 30.697,16.697C29.29,18.103 28.5,20.011 28.5,22L28.5,30C28.5,30.276 28.276,30.5 28,30.5C28,30.5 23.146,30.5 21,30.5C20.724,30.5 20.5,30.724 20.5,31C20.5,32.537 20.5,35.463 20.5,37C20.5,37.276 20.724,37.5 21,37.5L28,37.5C28.276,37.5 28.5,37.724 28.5,38L28.5,57.261C29.644,57.419 30.813,57.5 32,57.5C33.187,57.5 34.356,57.419 35.5,57.261Z"/><g transform="matrix(0.928571,0,0,0.928571,2.28571,2.28571)"><path d="M32,3.462C16.249,3.462 3.462,16.249 3.462,32C3.462,47.751 16.249,60.538 32,60.538C47.751,60.538 60.538,47.751 60.538,32C60.538,16.249 47.751,3.462 32,3.462ZM32,4.538C47.156,4.538 59.462,16.844 59.462,32C59.462,47.156 47.156,59.462 32,59.462C16.844,59.462 4.538,47.156 4.538,32C4.538,16.844 16.844,4.538 32,4.538Z"/></g></g></svg>